<svg xmlns="http://www.w3.org/2000/svg" xmlns:xlink="http://www.w3.org/1999/xlink" width="1080" zoomAndPan="magnify" viewBox="0 0 810 809.999993" height="1080" preserveAspectRatio="xMidYMid meet" version="1.0"><defs><clipPath id="9117e9d3e6"><path d="M 370.980469 39.746094 L 574.105469 39.746094 L 574.105469 405 L 370.980469 405 Z M 370.980469 39.746094 " clip-rule="nonzero"/></clipPath><clipPath id="be7413654c"><path d="M 370.980469 405 L 370.980469 39.746094 L 574.105469 39.746094 Z M 370.980469 405 " clip-rule="nonzero"/></clipPath><clipPath id="c0cefade99"><path d="M 0.980469 0.746094 L 204.105469 0.746094 L 204.105469 366 L 0.980469 366 Z M 0.980469 0.746094 " clip-rule="nonzero"/></clipPath><clipPath id="58529d22e7"><path d="M 0.980469 366 L 0.980469 0.746094 L 204.105469 0.746094 Z M 0.980469 366 " clip-rule="nonzero"/></clipPath><clipPath id="0f486256e1"><rect x="0" width="205" y="0" height="366"/></clipPath><clipPath id="70e2b8d489"><path d="M 404.417969 471.964844 L 633.316406 471.964844 L 633.316406 641.324219 L 404.417969 641.324219 Z M 404.417969 471.964844 " clip-rule="nonzero"/></clipPath><clipPath id="3f2549f912"><path d="M 404.988281 471.964844 L 633.316406 471.964844 L 633.316406 641.324219 Z M 404.988281 471.964844 " clip-rule="nonzero"/></clipPath><clipPath id="f00e5fc0df"><path d="M 1 0.964844 L 229.316406 0.964844 L 229.316406 170.324219 L 1 170.324219 Z M 1 0.964844 " clip-rule="nonzero"/></clipPath><clipPath id="79e9cd2d7f"><path d="M 0.988281 0.964844 L 229.316406 0.964844 L 229.316406 170.324219 Z M 0.988281 0.964844 " clip-rule="nonzero"/></clipPath><clipPath id="99a1a3e10c"><rect x="0" width="230" y="0" height="171"/></clipPath><clipPath id="4959881df9"><path d="M 624.9375 434.59375 L 662.421875 434.59375 L 662.421875 601.410156 L 624.9375 601.410156 Z M 624.9375 434.59375 " clip-rule="nonzero"/></clipPath><clipPath id="4a9d6092d9"><path d="M 0.9375 0.59375 L 38.421875 0.59375 L 38.421875 167.410156 L 0.9375 167.410156 Z M 0.9375 0.59375 " clip-rule="nonzero"/></clipPath><clipPath id="364e23311e"><rect x="0" width="39" y="0" height="168"/></clipPath><clipPath id="fad393a3d9"><path d="M 633.320312 596.292969 L 666.148438 596.292969 L 666.148438 641.429688 L 633.320312 641.429688 Z M 633.320312 596.292969 " clip-rule="nonzero"/></clipPath><clipPath id="f9141b66c3"><path d="M 633.320312 641.335938 L 633.320312 596.292969 L 666.148438 596.292969 Z M 633.320312 641.335938 " clip-rule="nonzero"/></clipPath><clipPath id="dbe3610bac"><path d="M 0.320312 0.292969 L 33.148438 0.292969 L 33.148438 45.429688 L 0.320312 45.429688 Z M 0.320312 0.292969 " clip-rule="nonzero"/></clipPath><clipPath id="ae673ef7e2"><path d="M 0.320312 45.335938 L 0.320312 0.292969 L 33.148438 0.292969 Z M 0.320312 45.335938 " clip-rule="nonzero"/></clipPath><clipPath id="a914a98bfe"><rect x="0" width="34" y="0" height="46"/></clipPath><clipPath id="89a473b73a"><path d="M 405 423.855469 L 662.585938 423.855469 L 662.585938 473.585938 L 405 473.585938 Z M 405 423.855469 " clip-rule="nonzero"/></clipPath><clipPath id="8fe75ac637"><path d="M 662.417969 423.855469 L 662.417969 473.585938 L 405 473.585938 Z M 662.417969 423.855469 " clip-rule="nonzero"/></clipPath><clipPath id="ff75ec6d96"><path d="M 0 0.855469 L 257.585938 0.855469 L 257.585938 50.585938 L 0 50.585938 Z M 0 0.855469 " clip-rule="nonzero"/></clipPath><clipPath id="357cbf7b0d"><path d="M 257.417969 0.855469 L 257.417969 50.585938 L 0 50.585938 Z M 257.417969 0.855469 " clip-rule="nonzero"/></clipPath><clipPath id="bbd85ad1f3"><rect x="0" width="258" y="0" height="51"/></clipPath><clipPath id="529f93df43"><path d="M 662.417969 423.863281 L 777.433594 423.863281 L 777.433594 666.863281 L 662.417969 666.863281 Z M 662.417969 423.863281 " clip-rule="nonzero"/></clipPath><clipPath id="2de58e435a"><path d="M 0.417969 0.863281 L 115.433594 0.863281 L 115.433594 243.863281 L 0.417969 243.863281 Z M 0.417969 0.863281 " clip-rule="nonzero"/></clipPath><clipPath id="c0ba703db3"><rect x="0" width="116" y="0" height="244"/></clipPath><clipPath id="f4183f0a55"><path d="M 631 580 L 679 580 L 679 667 L 631 667 Z M 631 580 " clip-rule="nonzero"/></clipPath><clipPath id="5bea623f37"><path d="M 678.398438 580.484375 L 709.175781 603.132812 L 662.199219 666.96875 L 631.425781 644.324219 Z M 678.398438 580.484375 " clip-rule="nonzero"/></clipPath><clipPath id="44e8cc94dc"><path d="M 662.277344 666.867188 L 631.5 644.21875 L 678.398438 580.484375 Z M 662.277344 666.867188 " clip-rule="nonzero"/></clipPath><clipPath id="146054b167"><path d="M 0.441406 0.320312 L 47.480469 0.320312 L 47.480469 86.960938 L 0.441406 86.960938 Z M 0.441406 0.320312 " clip-rule="nonzero"/></clipPath><clipPath id="a1c413b278"><path d="M 47.398438 0.484375 L 78.175781 23.132812 L 31.199219 86.96875 L 0.425781 64.324219 Z M 47.398438 0.484375 " clip-rule="nonzero"/></clipPath><clipPath id="3bb656dbb6"><path d="M 31.277344 86.867188 L 0.5 64.21875 L 47.398438 0.484375 Z M 31.277344 86.867188 " clip-rule="nonzero"/></clipPath><clipPath id="26fe1216fa"><rect x="0" width="48" y="0" height="87"/></clipPath><clipPath id="52bebf8063"><path d="M 631.453125 550.914062 L 635.203125 550.914062 L 635.203125 638.238281 L 631.453125 638.238281 Z M 631.453125 550.914062 " clip-rule="nonzero"/></clipPath><clipPath id="d2930ccd57"><path d="M 0.453125 0.914062 L 4.203125 0.914062 L 4.203125 88.238281 L 0.453125 88.238281 Z M 0.453125 0.914062 " clip-rule="nonzero"/></clipPath><clipPath id="731c8b6b39"><rect x="0" width="5" y="0" height="89"/></clipPath><clipPath id="b045f50800"><path d="M 384 472 L 624 472 L 624 664 L 384 664 Z M 384 472 " clip-rule="nonzero"/></clipPath><clipPath id="087e3b9a6c"><path d="M 400.324219 464.921875 L 631.566406 641.019531 L 608.601562 671.175781 L 377.359375 495.078125 Z M 400.324219 464.921875 " clip-rule="nonzero"/></clipPath><clipPath id="262ccb7f52"><path d="M 415.242188 476.28125 L 616.582031 629.613281 C 624.824219 635.886719 626.414062 647.648438 620.140625 655.886719 L 619.894531 656.210938 C 613.621094 664.449219 601.855469 666.042969 593.617188 659.769531 L 392.277344 506.441406 C 384.039062 500.164062 382.445312 488.402344 388.71875 480.164062 L 388.964844 479.839844 C 395.238281 471.601562 407.003906 470.007812 415.242188 476.28125 Z M 415.242188 476.28125 " clip-rule="nonzero"/></clipPath><clipPath id="52bc76d03e"><path d="M 0 0 L 240 0 L 240 192 L 0 192 Z M 0 0 " clip-rule="nonzero"/></clipPath><clipPath id="b285e63e72"><path d="M 16.324219 -7.078125 L 247.566406 169.019531 L 224.601562 199.175781 L -6.640625 23.078125 Z M 16.324219 -7.078125 " clip-rule="nonzero"/></clipPath><clipPath id="185d772da4"><path d="M 31.242188 4.28125 L 232.582031 157.613281 C 240.824219 163.886719 242.414062 175.648438 236.140625 183.886719 L 235.894531 184.210938 C 229.621094 192.449219 217.855469 194.042969 209.617188 187.769531 L 8.277344 34.441406 C 0.0390625 28.164062 -1.554688 16.402344 4.71875 8.164062 L 4.964844 7.839844 C 11.238281 -0.398438 23.003906 -1.992188 31.242188 4.28125 Z M 31.242188 4.28125 " clip-rule="nonzero"/></clipPath><clipPath id="9df309fa38"><rect x="0" width="240" y="0" height="192"/></clipPath><clipPath id="89072b9aca"><path d="M 515 605 L 616 605 L 616 677 L 515 677 Z M 515 605 " clip-rule="nonzero"/></clipPath><clipPath id="ea39f168fc"><path d="M 561.328125 705.734375 L 515.652344 651.703125 L 569.890625 605.847656 L 615.566406 659.875 Z M 561.328125 705.734375 " clip-rule="nonzero"/></clipPath><clipPath id="4a3228d4e7"><path d="M 615.566406 659.875 C 601.339844 671.90625 582.554688 677.90625 563.984375 676.351562 C 545.417969 674.796875 527.890625 665.753906 515.863281 651.527344 L 569.890625 605.847656 Z M 615.566406 659.875 " clip-rule="nonzero"/></clipPath><clipPath id="5cde1854bd"><path d="M 0.761719 0.761719 L 100.601562 0.761719 L 100.601562 72 L 0.761719 72 Z M 0.761719 0.761719 " clip-rule="nonzero"/></clipPath><clipPath id="f390ebec02"><path d="M 46.328125 100.734375 L 0.652344 46.703125 L 54.890625 0.847656 L 100.566406 54.875 Z M 46.328125 100.734375 " clip-rule="nonzero"/></clipPath><clipPath id="872b5ac5ec"><path d="M 100.566406 54.875 C 86.339844 66.90625 67.554688 72.90625 48.984375 71.351562 C 30.417969 69.796875 12.890625 60.753906 0.863281 46.527344 L 54.890625 0.847656 Z M 100.566406 54.875 " clip-rule="nonzero"/></clipPath><clipPath id="6814d3a111"><rect x="0" width="101" y="0" height="72"/></clipPath><clipPath id="4f59f3bfb8"><path d="M 370 487 L 575 487 L 575 640 L 370 640 Z M 370 487 " clip-rule="nonzero"/></clipPath><clipPath id="87497b68ab"><path d="M 370.984375 516.785156 L 390.222656 487.929688 L 574.109375 610.550781 L 554.871094 639.402344 Z M 370.984375 516.785156 " clip-rule="nonzero"/></clipPath><clipPath id="02f924807b"><path d="M 0.800781 0.921875 L 204.320312 0.921875 L 204.320312 152.601562 L 0.800781 152.601562 Z M 0.800781 0.921875 " clip-rule="nonzero"/></clipPath><clipPath id="9a630a0458"><path d="M 0.984375 29.785156 L 20.222656 0.929688 L 204.109375 123.550781 L 184.871094 152.402344 Z M 0.984375 29.785156 " clip-rule="nonzero"/></clipPath><clipPath id="ed82579281"><rect x="0" width="205" y="0" height="153"/></clipPath><clipPath id="ec16856183"><path d="M 463 569 L 549 569 L 549 656 L 463 656 Z M 463 569 " clip-rule="nonzero"/></clipPath><clipPath id="1eaa947c1b"><path d="M 551.582031 629.34375 L 522.609375 658.316406 L 448.585938 584.296875 L 477.5625 555.324219 Z M 551.582031 629.34375 " clip-rule="nonzero"/></clipPath><clipPath id="c8377bd4d5"><path d="M 514.335938 650.046875 L 478.398438 614.109375 L 463.136719 569.871094 L 507.375 585.136719 L 543.3125 621.074219 C 547.554688 625.316406 549.84375 631.082031 547.816406 633.109375 L 526.375 654.550781 C 524.347656 656.578125 518.582031 654.292969 514.335938 650.046875 Z M 514.335938 650.046875 " clip-rule="nonzero"/></clipPath><clipPath id="72cec542d5"><path d="M 0 0.761719 L 86 0.761719 L 86 87 L 0 87 Z M 0 0.761719 " clip-rule="nonzero"/></clipPath><clipPath id="254519b732"><path d="M 88.582031 60.34375 L 59.609375 89.316406 L -14.414062 15.296875 L 14.5625 -13.675781 Z M 88.582031 60.34375 " clip-rule="nonzero"/></clipPath><clipPath id="37e6f2cbb5"><path d="M 51.335938 81.046875 L 15.398438 45.109375 L 0.136719 0.871094 L 44.375 16.136719 L 80.3125 52.074219 C 84.554688 56.316406 86.84375 62.082031 84.816406 64.109375 L 63.375 85.550781 C 61.347656 87.578125 55.582031 85.292969 51.335938 81.046875 Z M 51.335938 81.046875 " clip-rule="nonzero"/></clipPath><clipPath id="6f1f495b1e"><rect x="0" width="86" y="0" height="87"/></clipPath><clipPath id="9360f49992"><path d="M 348 487 L 398 487 L 398 535 L 348 535 Z M 348 487 " clip-rule="nonzero"/></clipPath><clipPath id="f3e3e3014c"><path d="M 338.382812 502.113281 L 378.375 473.539062 L 405.074219 510.902344 L 365.082031 539.480469 Z M 338.382812 502.113281 " clip-rule="nonzero"/></clipPath><clipPath id="a8b64d5e38"><path d="M 358.34375 487.851562 L 388.5 487.863281 L 397.378906 516.402344 L 372.707031 534.03125 L 348.582031 516.386719 Z M 358.34375 487.851562 " clip-rule="nonzero"/></clipPath><clipPath id="a732ed21f8"><path d="M 0.480469 0.679688 L 49.441406 0.679688 L 49.441406 47.238281 L 0.480469 47.238281 Z M 0.480469 0.679688 " clip-rule="nonzero"/></clipPath><clipPath id="586eab49d9"><path d="M -9.617188 15.113281 L 30.375 -13.460938 L 57.074219 23.902344 L 17.082031 52.480469 Z M -9.617188 15.113281 " clip-rule="nonzero"/></clipPath><clipPath id="df853db992"><path d="M 10.34375 0.851562 L 40.5 0.863281 L 49.378906 29.402344 L 24.707031 47.03125 L 0.582031 29.386719 Z M 10.34375 0.851562 " clip-rule="nonzero"/></clipPath><clipPath id="6b082286b0"><rect x="0" width="50" y="0" height="48"/></clipPath><clipPath id="1f48b25a18"><path d="M 371 511 L 432 511 L 432 551 L 371 551 Z M 371 511 " clip-rule="nonzero"/></clipPath><clipPath id="791efcb3d0"><path d="M 431.519531 550.046875 L 396.324219 572.292969 L 371.648438 533.246094 L 406.84375 511.003906 Z M 431.519531 550.046875 " clip-rule="nonzero"/></clipPath><clipPath id="89b3a28275"><path d="M 371.679688 533.296875 L 406.875 511.050781 L 431.519531 550.046875 Z M 371.679688 533.296875 " clip-rule="nonzero"/></clipPath><clipPath id="22b27f8c27"><path d="M 0.519531 0 L 60.761719 0 L 60.761719 39.078125 L 0.519531 39.078125 Z M 0.519531 0 " clip-rule="nonzero"/></clipPath><clipPath id="22a44d6688"><path d="M 60.519531 39.046875 L 25.324219 61.292969 L 0.648438 22.246094 L 35.84375 0.00390625 Z M 60.519531 39.046875 " clip-rule="nonzero"/></clipPath><clipPath id="1f4b6512ee"><path d="M 0.679688 22.296875 L 35.875 0.0507812 L 60.519531 39.046875 Z M 0.679688 22.296875 " clip-rule="nonzero"/></clipPath><clipPath id="40fcd8e364"><rect x="0" width="61" y="0" height="40"/></clipPath><clipPath id="fe78bdb103"><path d="M 523 628 L 594 628 L 594 699 L 523 699 Z M 523 628 " clip-rule="nonzero"/></clipPath><clipPath id="57fa10162c"><path d="M 519.164062 645.695312 L 575.832031 623.671875 L 597.851562 680.335938 L 541.1875 702.359375 Z M 519.164062 645.695312 " clip-rule="nonzero"/></clipPath><clipPath id="11127ab2b9"><path d="M 564.675781 628.007812 L 530.320312 641.359375 L 523.5 656.851562 L 536.851562 691.203125 L 552.34375 698.023438 L 586.699219 684.671875 L 593.519531 669.179688 L 580.167969 634.828125 Z M 564.675781 628.007812 " clip-rule="nonzero"/></clipPath><clipPath id="45c718609b"><path d="M 0.441406 0 L 70.519531 0 L 70.519531 70.160156 L 0.441406 70.160156 Z M 0.441406 0 " clip-rule="nonzero"/></clipPath><clipPath id="537739b5ff"><path d="M -3.835938 17.695312 L 52.832031 -4.328125 L 74.851562 52.335938 L 18.1875 74.359375 Z M -3.835938 17.695312 " clip-rule="nonzero"/></clipPath><clipPath id="f008fd411f"><path d="M 41.675781 0.0078125 L 7.320312 13.359375 L 0.5 28.851562 L 13.851562 63.203125 L 29.34375 70.023438 L 63.699219 56.671875 L 70.519531 41.179688 L 57.167969 6.828125 Z M 41.675781 0.0078125 " clip-rule="nonzero"/></clipPath><clipPath id="b959b96402"><rect x="0" width="71" y="0" height="71"/></clipPath><clipPath id="20f7dea55b"><path d="M 572 630 L 632 630 L 632 685 L 572 685 Z M 572 630 " clip-rule="nonzero"/></clipPath><clipPath id="61154e4887"><path d="M 617.738281 630.757812 L 631.5 647.167969 L 586.707031 684.738281 L 572.941406 668.328125 Z M 617.738281 630.757812 " clip-rule="nonzero"/></clipPath><clipPath id="1cd7dbac5f"><path d="M 0.878906 0.71875 L 59.679688 0.71875 L 59.679688 54.960938 L 0.878906 54.960938 Z M 0.878906 0.71875 " clip-rule="nonzero"/></clipPath><clipPath id="b680b5e9b0"><path d="M 45.738281 0.757812 L 59.5 17.167969 L 14.707031 54.738281 L 0.941406 38.328125 Z M 45.738281 0.757812 " clip-rule="nonzero"/></clipPath><clipPath id="ef91605f0e"><rect x="0" width="60" y="0" height="55"/></clipPath><clipPath id="baf05a019c"><path d="M 280.664062 218.765625 L 377.359375 218.765625 L 377.359375 377.703125 L 280.664062 377.703125 Z M 280.664062 218.765625 " clip-rule="nonzero"/></clipPath><clipPath id="7a4eeff5ae"><path d="M 0.664062 0.765625 L 97.359375 0.765625 L 97.359375 159.703125 L 0.664062 159.703125 Z M 0.664062 0.765625 " clip-rule="nonzero"/></clipPath><clipPath id="c4df144bf6"><rect x="0" width="98" y="0" height="160"/></clipPath><clipPath id="c89282b2e8"><path d="M 308.492188 190.675781 L 385.792969 190.675781 L 385.792969 254.070312 L 308.492188 254.070312 Z M 308.492188 190.675781 " clip-rule="nonzero"/></clipPath><clipPath id="084d8bd459"><path d="M 0.492188 0.675781 L 77.792969 0.675781 L 77.792969 64.070312 L 0.492188 64.070312 Z M 0.492188 0.675781 " clip-rule="nonzero"/></clipPath><clipPath id="9d9c4191aa"><rect x="0" width="78" y="0" height="65"/></clipPath><clipPath id="03c68d6fd2"><path d="M 280.664062 377.703125 L 370.984375 377.703125 L 370.984375 487.933594 L 280.664062 487.933594 Z M 280.664062 377.703125 " clip-rule="nonzero"/></clipPath><clipPath id="211b20d607"><path d="M 0.664062 0.703125 L 90.984375 0.703125 L 90.984375 110.933594 L 0.664062 110.933594 Z M 0.664062 0.703125 " clip-rule="nonzero"/></clipPath><clipPath id="af8666f14a"><rect x="0" width="91" y="0" height="111"/></clipPath><clipPath id="64d7c5ca60"><path d="M 320.386719 487.925781 L 358.417969 487.925781 L 358.417969 515.742188 L 320.386719 515.742188 Z M 320.386719 487.925781 " clip-rule="nonzero"/></clipPath><clipPath id="6c94c741ed"><path d="M 348.933594 515.742188 L 329.964844 515.742188 L 320.480469 487.925781 L 358.417969 487.925781 Z M 348.933594 515.742188 " clip-rule="nonzero"/></clipPath><clipPath id="1fa97be9d4"><path d="M 0.398438 0.925781 L 38.417969 0.925781 L 38.417969 28.742188 L 0.398438 28.742188 Z M 0.398438 0.925781 " clip-rule="nonzero"/></clipPath><clipPath id="58ecc426c6"><path d="M 28.933594 28.742188 L 9.964844 28.742188 L 0.480469 0.925781 L 38.417969 0.925781 Z M 28.933594 28.742188 " clip-rule="nonzero"/></clipPath><clipPath id="3b6fa297f4"><rect x="0" width="39" y="0" height="29"/></clipPath><clipPath id="e92721c5c7"><path d="M 265.882812 487.933594 L 338.464844 487.933594 L 338.464844 515.75 L 265.882812 515.75 Z M 265.882812 487.933594 " clip-rule="nonzero"/></clipPath><clipPath id="2b9d43e19a"><path d="M 280.597656 487.933594 L 323.667969 487.933594 L 338.382812 515.75 L 265.882812 515.75 Z M 280.597656 487.933594 " clip-rule="nonzero"/></clipPath><clipPath id="2a5d5a13e0"><path d="M 0.882812 0.933594 L 73.398438 0.933594 L 73.398438 28.75 L 0.882812 28.75 Z M 0.882812 0.933594 " clip-rule="nonzero"/></clipPath><clipPath id="fd885bc38a"><path d="M 15.597656 0.933594 L 58.667969 0.933594 L 73.382812 28.75 L 0.882812 28.75 Z M 15.597656 0.933594 " clip-rule="nonzero"/></clipPath><clipPath id="a4af06047c"><rect x="0" width="74" y="0" height="29"/></clipPath><clipPath id="7e5fb32306"><path d="M 269.445312 497 L 329.144531 497 L 329.144531 545.363281 L 269.445312 545.363281 Z M 269.445312 497 " clip-rule="nonzero"/></clipPath><clipPath id="289a1abe8d"><path d="M 284.335938 545.363281 L 314.121094 545.363281 L 329.011719 497 L 269.445312 497 Z M 284.335938 545.363281 " clip-rule="nonzero"/></clipPath><clipPath id="8e8909c5ef"><path d="M 0.445312 0 L 60 0 L 60 48.363281 L 0.445312 48.363281 Z M 0.445312 0 " clip-rule="nonzero"/></clipPath><clipPath id="605acc5f6f"><path d="M 15.335938 48.363281 L 45.121094 48.363281 L 60.011719 0 L 0.445312 0 Z M 15.335938 48.363281 " clip-rule="nonzero"/></clipPath><clipPath id="d66e00b33d"><rect x="0" width="61" y="0" height="49"/></clipPath><clipPath id="49b36723d1"><path d="M 248 458 L 339 458 L 339 546 L 248 546 Z M 248 458 " clip-rule="nonzero"/></clipPath><clipPath id="cc8dd00087"><path d="M 248.78125 510.199219 L 306.726562 458.199219 L 338.382812 493.476562 L 280.433594 545.472656 Z M 248.78125 510.199219 " clip-rule="nonzero"/></clipPath><clipPath id="c06836c386"><path d="M 0.640625 0.160156 L 90.398438 0.160156 L 90.398438 87.519531 L 0.640625 87.519531 Z M 0.640625 0.160156 " clip-rule="nonzero"/></clipPath><clipPath id="170b9ba774"><path d="M 0.78125 52.199219 L 58.726562 0.199219 L 90.382812 35.476562 L 32.433594 87.472656 Z M 0.78125 52.199219 " clip-rule="nonzero"/></clipPath><clipPath id="f536c5ed00"><rect x="0" width="91" y="0" height="88"/></clipPath><clipPath id="38958b985b"><path d="M 280.664062 514.921875 L 310.925781 514.921875 L 310.925781 545.363281 L 280.664062 545.363281 Z M 280.664062 514.921875 " clip-rule="nonzero"/></clipPath><clipPath id="8ddaccbad2"><path d="M 0.664062 0.921875 L 30.925781 0.921875 L 30.925781 31.363281 L 0.664062 31.363281 Z M 0.664062 0.921875 " clip-rule="nonzero"/></clipPath><clipPath id="792539c74f"><rect x="0" width="31" y="0" height="32"/></clipPath><clipPath id="e13a9578fb"><path d="M 328.160156 458.371094 L 358.421875 458.371094 L 358.421875 488.816406 L 328.160156 488.816406 Z M 328.160156 458.371094 " clip-rule="nonzero"/></clipPath><clipPath id="2bb72546a6"><path d="M 0.160156 0.371094 L 30.421875 0.371094 L 30.421875 30.816406 L 0.160156 30.816406 Z M 0.160156 0.371094 " clip-rule="nonzero"/></clipPath><clipPath id="b2c80e2a51"><rect x="0" width="31" y="0" height="31"/></clipPath><clipPath id="4e6b7f5b76"><path d="M 171 377 L 281 377 L 281 488 L 171 488 Z M 171 377 " clip-rule="nonzero"/></clipPath><clipPath id="4933902486"><path d="M 171.035156 415.070312 L 280.484375 377.628906 L 308.511719 459.554688 L 199.066406 496.996094 Z M 171.035156 415.070312 " clip-rule="nonzero"/></clipPath><clipPath id="609aa7dc94"><path d="M 226.375 487.65625 L 280.992188 468.96875 L 280.269531 377.699219 L 171.035156 415.070312 Z M 226.375 487.65625 " clip-rule="nonzero"/></clipPath><clipPath id="6c2c8bbef8"><path d="M 0 0.519531 L 110 0.519531 L 110 110.679688 L 0 110.679688 Z M 0 0.519531 " clip-rule="nonzero"/></clipPath><clipPath id="3ba057a8c2"><path d="M 0.0351562 38.070312 L 109.484375 0.628906 L 137.511719 82.554688 L 28.066406 119.996094 Z M 0.0351562 38.070312 " clip-rule="nonzero"/></clipPath><clipPath id="a23852cb22"><path d="M 55.375 110.65625 L 109.992188 91.96875 L 109.269531 0.699219 L 0.0351562 38.070312 Z M 55.375 110.65625 " clip-rule="nonzero"/></clipPath><clipPath id="4f7fd75f51"><rect x="0" width="110" y="0" height="111"/></clipPath><clipPath id="64d81ed777"><path d="M 102 291 L 281 291 L 281 426 L 102 426 Z M 102 291 " clip-rule="nonzero"/></clipPath><clipPath id="f02e285a99"><path d="M 102.40625 352.667969 L 280.339844 291.796875 L 308.367188 373.722656 L 130.433594 434.59375 Z M 102.40625 352.667969 " clip-rule="nonzero"/></clipPath><clipPath id="c9ffc4d40e"><path d="M 157.742188 425.253906 L 280.992188 383.085938 L 280.269531 291.820312 L 102.40625 352.667969 Z M 157.742188 425.253906 " clip-rule="nonzero"/></clipPath><clipPath id="0eb1c9a506"><path d="M 0.238281 0.601562 L 179 0.601562 L 179 134.28125 L 0.238281 134.28125 Z M 0.238281 0.601562 " clip-rule="nonzero"/></clipPath><clipPath id="7e4bb4ca16"><path d="M 0.40625 61.667969 L 178.339844 0.796875 L 206.367188 82.722656 L 28.433594 143.59375 Z M 0.40625 61.667969 " clip-rule="nonzero"/></clipPath><clipPath id="fbf71eb8f1"><path d="M 55.742188 134.253906 L 178.992188 92.085938 L 178.269531 0.820312 L 0.40625 61.667969 Z M 55.742188 134.253906 " clip-rule="nonzero"/></clipPath><clipPath id="3296ac4e46"><rect x="0" width="179" y="0" height="135"/></clipPath><clipPath id="1369c6e36e"><path d="M 81 284 L 281 284 L 281 426 L 81 426 Z M 81 284 " clip-rule="nonzero"/></clipPath><clipPath id="7ae9d97f8d"><path d="M 81 352.667969 L 280.375 284.460938 L 308.402344 366.386719 L 109.027344 434.59375 Z M 81 352.667969 " clip-rule="nonzero"/></clipPath><clipPath id="da9aacebf5"><path d="M 136.335938 425.25 L 280.992188 375.765625 L 280.269531 284.496094 L 81 352.667969 Z M 136.335938 425.25 " clip-rule="nonzero"/></clipPath><clipPath id="8746a36db9"><path d="M 0 0.398438 L 200 0.398438 L 200 141.28125 L 0 141.28125 Z M 0 0.398438 " clip-rule="nonzero"/></clipPath><clipPath id="63be27a024"><path d="M 0 68.667969 L 199.375 0.460938 L 227.402344 82.386719 L 28.027344 150.59375 Z M 0 68.667969 " clip-rule="nonzero"/></clipPath><clipPath id="7c207c96ec"><path d="M 55.335938 141.25 L 199.992188 91.765625 L 199.269531 0.496094 L 0 68.667969 Z M 55.335938 141.25 " clip-rule="nonzero"/></clipPath><clipPath id="caea3316ac"><rect x="0" width="200" y="0" height="142"/></clipPath><clipPath id="1b910587e7"><path d="M 43 241 L 281 241 L 281 396 L 43 396 Z M 43 241 " clip-rule="nonzero"/></clipPath><clipPath id="2f3a23f050"><path d="M 43.269531 323.074219 L 280.40625 241.945312 L 308.433594 323.871094 L 71.296875 405 Z M 43.269531 323.074219 " clip-rule="nonzero"/></clipPath><clipPath id="71b54e0fbd"><path d="M 98.605469 395.65625 L 280.992188 333.261719 L 280.269531 241.992188 L 43.269531 323.074219 Z M 98.605469 395.65625 " clip-rule="nonzero"/></clipPath><clipPath id="5bf3dd3aba"><path d="M 0.199219 0.921875 L 238 0.921875 L 238 154.761719 L 0.199219 154.761719 Z M 0.199219 0.921875 " clip-rule="nonzero"/></clipPath><clipPath id="b58a0a1348"><path d="M 0.269531 82.074219 L 237.40625 0.945312 L 265.433594 82.871094 L 28.296875 164 Z M 0.269531 82.074219 " clip-rule="nonzero"/></clipPath><clipPath id="eb2a8b83f8"><path d="M 55.605469 154.65625 L 237.992188 92.261719 L 237.269531 0.992188 L 0.269531 82.074219 Z M 55.605469 154.65625 " clip-rule="nonzero"/></clipPath><clipPath id="ce516bbcf8"><rect x="0" width="238" y="0" height="155"/></clipPath><clipPath id="793d87116b"><path d="M 7 263 L 279 263 L 279 325 L 7 325 Z M 7 263 " clip-rule="nonzero"/></clipPath><clipPath id="b9da6078fe"><path d="M 7.339844 274.398438 L 278.828125 263.714844 L 280.847656 315.046875 L 9.359375 325.730469 Z M 7.339844 274.398438 " clip-rule="nonzero"/></clipPath><clipPath id="1be1f07afd"><path d="M 39.492188 324.542969 L 250.53125 316.238281 L 278.644531 263.722656 L 7.339844 274.398438 Z M 39.492188 324.542969 " clip-rule="nonzero"/></clipPath><clipPath id="dc124c1246"><path d="M 0.199219 0.519531 L 271.878906 0.519531 L 271.878906 61.71875 L 0.199219 61.71875 Z M 0.199219 0.519531 " clip-rule="nonzero"/></clipPath><clipPath id="2189064028"><path d="M 0.339844 11.398438 L 271.828125 0.714844 L 273.847656 52.046875 L 2.359375 62.730469 Z M 0.339844 11.398438 " clip-rule="nonzero"/></clipPath><clipPath id="c587ab2547"><path d="M 32.492188 61.542969 L 243.53125 53.238281 L 271.644531 0.722656 L 0.339844 11.398438 Z M 32.492188 61.542969 " clip-rule="nonzero"/></clipPath><clipPath id="f4c7d1a57b"><rect x="0" width="272" y="0" height="62"/></clipPath><clipPath id="6968f99a0c"><path d="M 220 456 L 280 456 L 280 517 L 220 517 Z M 220 456 " clip-rule="nonzero"/></clipPath><clipPath id="c7d8d4081f"><path d="M 279.90625 483.070312 L 240.75 517.078125 L 210.625 482.390625 L 249.785156 448.382812 Z M 279.90625 483.070312 " clip-rule="nonzero"/></clipPath><clipPath id="985d252747"><path d="M 240.214844 456.695312 L 220.320312 473.96875 L 240.875 516.96875 L 279.90625 483.070312 Z M 240.214844 456.695312 " clip-rule="nonzero"/></clipPath><clipPath id="32a6d2ceb8"><path d="M 0.320312 0.480469 L 60 0.480469 L 60 61 L 0.320312 61 Z M 0.320312 0.480469 " clip-rule="nonzero"/></clipPath><clipPath id="f6940a108b"><path d="M 59.90625 27.070312 L 20.75 61.078125 L -9.375 26.390625 L 29.785156 -7.617188 Z M 59.90625 27.070312 " clip-rule="nonzero"/></clipPath><clipPath id="28f7fdc2e1"><path d="M 20.214844 0.695312 L 0.320312 17.96875 L 20.875 60.96875 L 59.90625 27.070312 Z M 20.214844 0.695312 " clip-rule="nonzero"/></clipPath><clipPath id="0b8d0476f6"><rect x="0" width="60" y="0" height="61"/></clipPath><clipPath id="758bd2316f"><path d="M 263.078125 461.089844 L 280.660156 461.089844 L 280.660156 482.925781 L 263.078125 482.925781 Z M 263.078125 461.089844 " clip-rule="nonzero"/></clipPath><clipPath id="f7155a093d"><path d="M 263.078125 465.9375 L 263.078125 478.015625 L 280.660156 482.867188 L 280.660156 461.089844 Z M 263.078125 465.9375 " clip-rule="nonzero"/></clipPath><clipPath id="eba283a4bc"><path d="M 0.078125 0.0898438 L 17.660156 0.0898438 L 17.660156 21.878906 L 0.078125 21.878906 Z M 0.078125 0.0898438 " clip-rule="nonzero"/></clipPath><clipPath id="459dc36305"><path d="M 0.078125 4.9375 L 0.078125 17.015625 L 17.660156 21.867188 L 17.660156 0.0898438 Z M 0.078125 4.9375 " clip-rule="nonzero"/></clipPath><clipPath id="68349e8cba"><rect x="0" width="18" y="0" height="22"/></clipPath></defs><g clip-path="url(#9117e9d3e6)"><g clip-path="url(#be7413654c)"><g transform="matrix(1, 0, 0, 1, 370, 39)"><g clip-path="url(#0f486256e1)"><g clip-path="url(#c0cefade99)"><g clip-path="url(#58529d22e7)"><path fill="#de7075" d="M 204.105469 0.746094 L 204.105469 365.738281 L 0.980469 365.738281 L 0.980469 0.746094 Z M 204.105469 0.746094 " fill-opacity="1" fill-rule="nonzero"/></g></g></g></g></g></g><g clip-path="url(#70e2b8d489)"><g clip-path="url(#3f2549f912)"><g transform="matrix(1, 0, 0, 1, 404, 471)"><g clip-path="url(#99a1a3e10c)"><g clip-path="url(#f00e5fc0df)"><g clip-path="url(#79e9cd2d7f)"><path fill="#a5b4d3" d="M 229.316406 170.324219 L 1.078125 170.324219 L 1.078125 0.964844 L 229.316406 0.964844 Z M 229.316406 170.324219 " fill-opacity="1" fill-rule="nonzero"/></g></g></g></g></g></g><g clip-path="url(#4959881df9)"><g transform="matrix(1, 0, 0, 1, 624, 434)"><g clip-path="url(#364e23311e)"><g clip-path="url(#4a9d6092d9)"><path fill="#a5b4d3" d="M 0.9375 167.410156 L 0.9375 0.648438 L 38.421875 0.648438 L 38.421875 167.410156 Z M 0.9375 167.410156 " fill-opacity="1" fill-rule="nonzero"/></g></g></g></g><g clip-path="url(#fad393a3d9)"><g clip-path="url(#f9141b66c3)"><g transform="matrix(1, 0, 0, 1, 633, 596)"><g clip-path="url(#a914a98bfe)"><g clip-path="url(#dbe3610bac)"><g clip-path="url(#ae673ef7e2)"><path fill="#a5b4d3" d="M 33.148438 0.292969 L 33.148438 45.300781 L 0.320312 45.300781 L 0.320312 0.292969 Z M 33.148438 0.292969 " fill-opacity="1" fill-rule="nonzero"/></g></g></g></g></g></g><g clip-path="url(#89a473b73a)"><g clip-path="url(#8fe75ac637)"><g transform="matrix(1, 0, 0, 1, 405, 423)"><g clip-path="url(#bbd85ad1f3)"><g clip-path="url(#ff75ec6d96)"><g clip-path="url(#357cbf7b0d)"><path fill="#a5b4d3" d="M 0 50.585938 L 0 0.855469 L 257.390625 0.855469 L 257.390625 50.585938 Z M 0 50.585938 " fill-opacity="1" fill-rule="nonzero"/></g></g></g></g></g></g><g clip-path="url(#529f93df43)"><g transform="matrix(1, 0, 0, 1, 662, 423)"><g clip-path="url(#c0ba703db3)"><g clip-path="url(#2de58e435a)"><path fill="#e2a9f1" d="M 0.417969 0.863281 L 115.433594 0.863281 L 115.433594 243.921875 L 0.417969 243.921875 Z M 0.417969 0.863281 " fill-opacity="1" fill-rule="nonzero"/></g></g></g></g><g clip-path="url(#f4183f0a55)"><g clip-path="url(#5bea623f37)"><g clip-path="url(#44e8cc94dc)"><g transform="matrix(1, 0, 0, 1, 631, 580)"><g clip-path="url(#26fe1216fa)"><g clip-path="url(#146054b167)"><g clip-path="url(#a1c413b278)"><g clip-path="url(#3bb656dbb6)"><path fill="#e2a9f1" d="M 47.398438 0.484375 L 78.175781 23.132812 L 31.289062 86.851562 L 0.511719 64.203125 Z M 47.398438 0.484375 " fill-opacity="1" fill-rule="nonzero"/></g></g></g></g></g></g></g></g><g clip-path="url(#52bebf8063)"><g transform="matrix(1, 0, 0, 1, 631, 550)"><g clip-path="url(#731c8b6b39)"><g clip-path="url(#d2930ccd57)"><path fill="#a5b4d3" d="M 0.453125 0.914062 L 4.203125 0.914062 L 4.203125 88.234375 L 0.453125 88.234375 Z M 0.453125 0.914062 " fill-opacity="1" fill-rule="nonzero"/></g></g></g></g><g clip-path="url(#b045f50800)"><g clip-path="url(#087e3b9a6c)"><g clip-path="url(#262ccb7f52)"><g transform="matrix(1, 0, 0, 1, 384, 472)"><g clip-path="url(#9df309fa38)"><g clip-path="url(#52bc76d03e)"><g clip-path="url(#b285e63e72)"><g clip-path="url(#185d772da4)"><path fill="#00bf63" d="M 16.324219 -7.078125 L 247.449219 168.929688 L 224.480469 199.085938 L -6.640625 23.078125 Z M 16.324219 -7.078125 " fill-opacity="1" fill-rule="nonzero"/></g></g></g></g></g></g></g></g><g clip-path="url(#89072b9aca)"><g clip-path="url(#ea39f168fc)"><g clip-path="url(#4a3228d4e7)"><g transform="matrix(1, 0, 0, 1, 515, 605)"><g clip-path="url(#6814d3a111)"><g clip-path="url(#5cde1854bd)"><g clip-path="url(#f390ebec02)"><g clip-path="url(#872b5ac5ec)"><path fill="#00bf63" d="M 46.539062 100.554688 L 0.863281 46.527344 L 54.890625 0.847656 L 100.566406 54.875 Z M 46.539062 100.554688 " fill-opacity="1" fill-rule="nonzero"/></g></g></g></g></g></g></g></g><g clip-path="url(#4f59f3bfb8)"><g clip-path="url(#87497b68ab)"><g transform="matrix(1, 0, 0, 1, 370, 487)"><g clip-path="url(#ed82579281)"><g clip-path="url(#02f924807b)"><g clip-path="url(#9a630a0458)"><path fill="#00bf63" d="M 0.984375 29.785156 L 20.222656 0.929688 L 204.160156 123.582031 L 184.921875 152.433594 Z M 0.984375 29.785156 " fill-opacity="1" fill-rule="nonzero"/></g></g></g></g></g></g><g clip-path="url(#ec16856183)"><g clip-path="url(#1eaa947c1b)"><g clip-path="url(#c8377bd4d5)"><g transform="matrix(1, 0, 0, 1, 463, 569)"><g clip-path="url(#6f1f495b1e)"><g clip-path="url(#72cec542d5)"><g clip-path="url(#254519b732)"><g clip-path="url(#37e6f2cbb5)"><path fill="#00bf63" d="M 88.582031 60.34375 L 59.609375 89.316406 L -14.300781 15.410156 L 14.675781 -13.5625 Z M 88.582031 60.34375 " fill-opacity="1" fill-rule="nonzero"/></g></g></g></g></g></g></g></g><g clip-path="url(#9360f49992)"><g clip-path="url(#f3e3e3014c)"><g clip-path="url(#a8b64d5e38)"><g transform="matrix(1, 0, 0, 1, 348, 487)"><g clip-path="url(#6b082286b0)"><g clip-path="url(#a732ed21f8)"><g clip-path="url(#586eab49d9)"><g clip-path="url(#df853db992)"><path fill="#00bf63" d="M -9.617188 15.113281 L 30.375 -13.460938 L 57.074219 23.902344 L 17.082031 52.480469 Z M -9.617188 15.113281 " fill-opacity="1" fill-rule="nonzero"/></g></g></g></g></g></g></g></g><g clip-path="url(#1f48b25a18)"><g clip-path="url(#791efcb3d0)"><g clip-path="url(#89b3a28275)"><g transform="matrix(1, 0, 0, 1, 371, 511)"><g clip-path="url(#40fcd8e364)"><g clip-path="url(#22b27f8c27)"><g clip-path="url(#22a44d6688)"><g clip-path="url(#1f4b6512ee)"><path fill="#00bf63" d="M 60.519531 39.046875 L 25.324219 61.292969 L 0.648438 22.246094 L 35.84375 0.00390625 Z M 60.519531 39.046875 " fill-opacity="1" fill-rule="nonzero"/></g></g></g></g></g></g></g></g><g clip-path="url(#fe78bdb103)"><g clip-path="url(#57fa10162c)"><g clip-path="url(#11127ab2b9)"><g transform="matrix(1, 0, 0, 1, 523, 628)"><g clip-path="url(#b959b96402)"><g clip-path="url(#45c718609b)"><g clip-path="url(#537739b5ff)"><g clip-path="url(#f008fd411f)"><path fill="#00bf63" d="M -3.835938 17.695312 L 52.832031 -4.328125 L 74.851562 52.335938 L 18.1875 74.359375 Z M -3.835938 17.695312 " fill-opacity="1" fill-rule="nonzero"/></g></g></g></g></g></g></g></g><g clip-path="url(#20f7dea55b)"><g clip-path="url(#61154e4887)"><g transform="matrix(1, 0, 0, 1, 572, 630)"><g clip-path="url(#ef91605f0e)"><g clip-path="url(#1cd7dbac5f)"><g clip-path="url(#b680b5e9b0)"><path fill="#00bf63" d="M 45.738281 0.757812 L 59.5 17.167969 L 14.691406 54.75 L 0.929688 38.335938 Z M 45.738281 0.757812 " fill-opacity="1" fill-rule="nonzero"/></g></g></g></g></g></g><g clip-path="url(#baf05a019c)"><g transform="matrix(1, 0, 0, 1, 280, 218)"><g clip-path="url(#c4df144bf6)"><g clip-path="url(#7a4eeff5ae)"><path fill="#de7075" d="M 0.664062 0.765625 L 97.359375 0.765625 L 97.359375 159.785156 L 0.664062 159.785156 Z M 0.664062 0.765625 " fill-opacity="1" fill-rule="nonzero"/></g></g></g></g><g clip-path="url(#c89282b2e8)"><g transform="matrix(1, 0, 0, 1, 308, 190)"><g clip-path="url(#9d9c4191aa)"><g clip-path="url(#084d8bd459)"><path fill="#de7075" d="M 0.492188 0.675781 L 77.753906 0.675781 L 77.753906 64.070312 L 0.492188 64.070312 Z M 0.492188 0.675781 " fill-opacity="1" fill-rule="nonzero"/></g></g></g></g><g clip-path="url(#03c68d6fd2)"><g transform="matrix(1, 0, 0, 1, 280, 377)"><g clip-path="url(#af8666f14a)"><g clip-path="url(#211b20d607)"><path fill="#0097b2" d="M 0.664062 0.703125 L 90.984375 0.703125 L 90.984375 110.777344 L 0.664062 110.777344 Z M 0.664062 0.703125 " fill-opacity="1" fill-rule="nonzero"/></g></g></g></g><g clip-path="url(#64d7c5ca60)"><g clip-path="url(#6c94c741ed)"><g transform="matrix(1, 0, 0, 1, 320, 487)"><g clip-path="url(#3b6fa297f4)"><g clip-path="url(#1fa97be9d4)"><g clip-path="url(#58ecc426c6)"><path fill="#0097b2" d="M 38.417969 28.742188 L 0.496094 28.742188 L 0.496094 0.925781 L 38.417969 0.925781 Z M 38.417969 28.742188 " fill-opacity="1" fill-rule="nonzero"/></g></g></g></g></g></g><g clip-path="url(#e92721c5c7)"><g clip-path="url(#2b9d43e19a)"><g transform="matrix(1, 0, 0, 1, 265, 487)"><g clip-path="url(#a4af06047c)"><g clip-path="url(#2a5d5a13e0)"><g clip-path="url(#fd885bc38a)"><path fill="#0097b2" d="M 0.882812 0.933594 L 73.359375 0.933594 L 73.359375 28.75 L 0.882812 28.75 Z M 0.882812 0.933594 " fill-opacity="1" fill-rule="nonzero"/></g></g></g></g></g></g><g clip-path="url(#7e5fb32306)"><g clip-path="url(#289a1abe8d)"><g transform="matrix(1, 0, 0, 1, 269, 497)"><g clip-path="url(#d66e00b33d)"><g clip-path="url(#8e8909c5ef)"><g clip-path="url(#605acc5f6f)"><path fill="#0097b2" d="M 0.445312 0 L 59.957031 0 L 59.957031 48.363281 L 0.445312 48.363281 Z M 0.445312 0 " fill-opacity="1" fill-rule="nonzero"/></g></g></g></g></g></g><g clip-path="url(#49b36723d1)"><g clip-path="url(#cc8dd00087)"><g transform="matrix(1, 0, 0, 1, 248, 458)"><g clip-path="url(#f536c5ed00)"><g clip-path="url(#c06836c386)"><g clip-path="url(#170b9ba774)"><path fill="#0097b2" d="M 0.78125 52.199219 L 58.792969 0.144531 L 90.445312 35.417969 L 32.433594 87.472656 Z M 0.78125 52.199219 " fill-opacity="1" fill-rule="nonzero"/></g></g></g></g></g></g><g clip-path="url(#38958b985b)"><g transform="matrix(1, 0, 0, 1, 280, 514)"><g clip-path="url(#792539c74f)"><g clip-path="url(#8ddaccbad2)"><path fill="#0097b2" d="M 0.664062 0.921875 L 30.925781 0.921875 L 30.925781 31.417969 L 0.664062 31.417969 Z M 0.664062 0.921875 " fill-opacity="1" fill-rule="nonzero"/></g></g></g></g><g clip-path="url(#e13a9578fb)"><g transform="matrix(1, 0, 0, 1, 328, 458)"><g clip-path="url(#b2c80e2a51)"><g clip-path="url(#2bb72546a6)"><path fill="#0097b2" d="M 0.160156 0.371094 L 30.421875 0.371094 L 30.421875 30.871094 L 0.160156 30.871094 Z M 0.160156 0.371094 " fill-opacity="1" fill-rule="nonzero"/></g></g></g></g><g clip-path="url(#4e6b7f5b76)"><g clip-path="url(#4933902486)"><g clip-path="url(#609aa7dc94)"><g transform="matrix(1, 0, 0, 1, 171, 377)"><g clip-path="url(#4f7fd75f51)"><g clip-path="url(#6c2c8bbef8)"><g clip-path="url(#3ba057a8c2)"><g clip-path="url(#a23852cb22)"><path fill="#ff914d" d="M 0.0351562 38.070312 L 109.164062 0.738281 L 137.191406 82.664062 L 28.066406 119.996094 Z M 0.0351562 38.070312 " fill-opacity="1" fill-rule="nonzero"/></g></g></g></g></g></g></g></g><g clip-path="url(#64d81ed777)"><g clip-path="url(#f02e285a99)"><g clip-path="url(#c9ffc4d40e)"><g transform="matrix(1, 0, 0, 1, 102, 291)"><g clip-path="url(#3296ac4e46)"><g clip-path="url(#0eb1c9a506)"><g clip-path="url(#7e4bb4ca16)"><g clip-path="url(#fbf71eb8f1)"><path fill="#ff914d" d="M 0.40625 61.667969 L 178.339844 0.796875 L 206.367188 82.722656 L 28.433594 143.59375 Z M 0.40625 61.667969 " fill-opacity="1" fill-rule="nonzero"/></g></g></g></g></g></g></g></g><g clip-path="url(#1369c6e36e)"><g clip-path="url(#7ae9d97f8d)"><g clip-path="url(#da9aacebf5)"><g transform="matrix(1, 0, 0, 1, 81, 284)"><g clip-path="url(#caea3316ac)"><g clip-path="url(#8746a36db9)"><g clip-path="url(#63be27a024)"><g clip-path="url(#7c207c96ec)"><path fill="#ff914d" d="M 0 68.667969 L 199.375 0.460938 L 227.402344 82.386719 L 28.027344 150.59375 Z M 0 68.667969 " fill-opacity="1" fill-rule="nonzero"/></g></g></g></g></g></g></g></g><g clip-path="url(#1b910587e7)"><g clip-path="url(#2f3a23f050)"><g clip-path="url(#71b54e0fbd)"><g transform="matrix(1, 0, 0, 1, 43, 241)"><g clip-path="url(#ce516bbcf8)"><g clip-path="url(#5bf3dd3aba)"><g clip-path="url(#b58a0a1348)"><g clip-path="url(#eb2a8b83f8)"><path fill="#ff914d" d="M 0.269531 82.074219 L 237.40625 0.945312 L 265.433594 82.871094 L 28.296875 164 Z M 0.269531 82.074219 " fill-opacity="1" fill-rule="nonzero"/></g></g></g></g></g></g></g></g><g clip-path="url(#793d87116b)"><g clip-path="url(#b9da6078fe)"><g clip-path="url(#1be1f07afd)"><g transform="matrix(1, 0, 0, 1, 7, 263)"><g clip-path="url(#f4c7d1a57b)"><g clip-path="url(#dc124c1246)"><g clip-path="url(#2189064028)"><g clip-path="url(#c587ab2547)"><path fill="#ff914d" d="M 0.339844 11.398438 L 271.628906 0.722656 L 273.648438 52.054688 L 2.359375 62.730469 Z M 0.339844 11.398438 " fill-opacity="1" fill-rule="nonzero"/></g></g></g></g></g></g></g></g><g clip-path="url(#6968f99a0c)"><g clip-path="url(#c7d8d4081f)"><g clip-path="url(#985d252747)"><g transform="matrix(1, 0, 0, 1, 220, 456)"><g clip-path="url(#0b8d0476f6)"><g clip-path="url(#32a6d2ceb8)"><g clip-path="url(#f6940a108b)"><g clip-path="url(#28f7fdc2e1)"><path fill="#ff914d" d="M 59.90625 27.070312 L 20.882812 60.960938 L -9.238281 26.273438 L 29.785156 -7.617188 Z M 59.90625 27.070312 " fill-opacity="1" fill-rule="nonzero"/></g></g></g></g></g></g></g></g><g clip-path="url(#758bd2316f)"><g clip-path="url(#f7155a093d)"><g transform="matrix(1, 0, 0, 1, 263, 461)"><g clip-path="url(#68349e8cba)"><g clip-path="url(#eba283a4bc)"><g clip-path="url(#459dc36305)"><path fill="#ff914d" d="M 17.660156 0.0898438 L 17.660156 21.859375 L 0.078125 21.859375 L 0.078125 0.0898438 Z M 17.660156 0.0898438 " fill-opacity="1" fill-rule="nonzero"/></g></g></g></g></g></g></svg>